<svg width="11" height="12" viewBox="0 0 11 12" fill="none" xmlns="http://www.w3.org/2000/svg">
<path fill-rule="evenodd" clip-rule="evenodd" d="M4.55078 2.55078H0.713636C0.319506 2.55078 0 2.87029 0 3.26442V10.3225C0 10.7167 0.319505 11.0362 0.713636 11.0362H7.77174C8.16587 11.0362 8.48538 10.7167 8.48538 10.3225V6.58298H7.59333V10.1441H0.892045V3.44283H4.55078V2.55078Z" fill="#C3D5F0"/>
<path d="M10.9609 1.00021C10.9609 0.753882 10.7613 0.554191 10.5149 0.55419L6.50072 0.554191C6.25439 0.55419 6.0547 0.753882 6.0547 1.00021C6.0547 1.24654 6.25439 1.44624 6.50072 1.44624H10.0689V5.01441C10.0689 5.26075 10.2686 5.46044 10.5149 5.46044C10.7613 5.46044 10.9609 5.26075 10.9609 5.01441L10.9609 1.00021ZM4.86617 7.27974L10.8303 1.3156L10.1995 0.684828L4.2354 6.64897L4.86617 7.27974Z" fill="#C3D5F0"/>
</svg>
