<svg width="219" height="34" viewBox="0 0 219 34" fill="none" xmlns="http://www.w3.org/2000/svg">
<path d="M210.167 27.4745C209.285 27.0156 208.602 26.3704 208.119 25.5388C207.635 24.7216 207.393 23.7753 207.393 22.7142V21.1944H211.234V22.7859C211.234 23.3881 211.419 23.8613 211.774 24.2197C212.13 24.5782 212.613 24.7646 213.197 24.7646C213.766 24.7646 214.249 24.5782 214.605 24.2054C214.975 23.8326 215.16 23.3595 215.16 22.7859V21.1944H219L218.915 22.7142C218.915 23.7753 218.673 24.7216 218.189 25.5532C217.706 26.3848 217.023 27.03 216.169 27.4888C215.316 27.9476 214.32 28.177 213.197 28.177C212.059 28.1627 211.049 27.9333 210.167 27.4745ZM210.167 18.4415C209.285 17.9827 208.602 17.3375 208.119 16.5059C207.635 15.6886 207.393 14.7423 207.393 13.6813V12.1615H211.234V13.753C211.234 14.3552 211.419 14.8283 211.774 15.1868C212.13 15.5452 212.613 15.7316 213.197 15.7316C213.766 15.7316 214.249 15.5452 214.605 15.1725C214.975 14.7997 215.16 14.3265 215.16 13.753V12.1615H219L218.915 13.6813C218.915 14.7423 218.673 15.6886 218.189 16.5202C217.706 17.3518 217.023 17.997 216.169 18.4559C215.316 18.9147 214.32 19.1441 213.197 19.1441C212.059 19.1297 211.049 18.9003 210.167 18.4415ZM209.143 6.42627H212.357V9.3799H209.143V6.42627ZM214.036 6.42627H217.25V9.3799H214.036V6.42627Z" fill="white"/>
<path d="M40.9919 9.93589H44.1377L47.3077 15.9129C47.3561 16.0097 47.4287 16.0581 47.5255 16.0581C47.6223 16.0581 47.6949 16.0097 47.7433 15.9129L50.9132 9.93589H54.059V26.8747H50.4293V19.8572L50.7681 17.7277V17.6793C50.7681 17.6148 50.7439 17.5664 50.6955 17.5342C50.6632 17.4858 50.6229 17.4616 50.5745 17.4616C50.4938 17.4616 50.4293 17.5019 50.3809 17.5826L48.0578 21.3333H46.7995L44.6701 17.5826C44.6378 17.5019 44.5733 17.4616 44.4765 17.4616C44.412 17.4616 44.3555 17.4938 44.3071 17.5584C44.2748 17.6067 44.2668 17.6632 44.2829 17.7277L44.6217 19.8572V26.8747H40.9919V9.93589Z" fill="white"/>
<path d="M57.6812 23.7289H59.9075V13.0817H57.6812V9.93589H65.9812V13.0817H63.755V23.7289H65.9812V26.8747H57.6812V23.7289Z" fill="white"/>
<path d="M69.6197 9.93589H72.7655L78.0649 19.228C78.1133 19.3087 78.1778 19.349 78.2585 19.349C78.323 19.349 78.3714 19.3248 78.4037 19.2764C78.4521 19.2119 78.4682 19.1474 78.4521 19.0828L78.0891 16.9534V9.93589H81.7188V26.8747H78.573L73.2978 17.5826C73.2655 17.5019 73.201 17.4616 73.1042 17.4616C73.0397 17.4616 72.9832 17.4938 72.9348 17.5584C72.9026 17.6067 72.8945 17.6632 72.9106 17.7277L73.2494 19.8572V26.8747H69.6197V9.93589Z" fill="white"/>
<path d="M85.824 9.93589H96.2293V13.3237H89.3328V16.8324H95.8179V19.9782H89.3328V23.4869H96.2293V26.8747H85.824V9.93589Z" fill="white"/>
<path d="M105.614 27.1167C103.742 27.1167 102.274 26.6569 101.209 25.7374C100.145 24.8017 99.5397 23.4547 99.3945 21.6963C99.2977 20.438 99.2494 19.341 99.2494 18.4053C99.2494 17.147 99.2977 16.05 99.3945 15.1143C99.6043 13.3398 100.29 11.9847 101.451 11.049C102.613 10.1133 104.145 9.64551 106.049 9.64551C107.888 9.64551 109.469 10.1375 110.792 11.1216L109.606 14.1464C109.138 13.727 108.614 13.4366 108.033 13.2753C107.453 13.1139 106.791 13.0333 106.049 13.0333C105.049 13.0333 104.299 13.2591 103.799 13.7108C103.315 14.1625 103.032 14.832 102.952 15.7193C102.871 16.6872 102.831 17.5826 102.831 18.4053C102.831 19.099 102.871 20.0669 102.952 21.3091C103.016 22.0834 103.266 22.6803 103.702 23.0998C104.137 23.5031 104.742 23.7128 105.517 23.7289C106.275 23.7289 106.936 23.6644 107.501 23.5353V20.0992H105.855V16.7114H112.147V20.0992H110.647V25.81C109.469 26.6811 107.791 27.1167 105.614 27.1167Z" fill="white"/>
<path d="M115.043 9.93589H118.914V23.4869H123.609V26.8747H115.043V9.93589Z" fill="white"/>
<path d="M131.856 27.1651C130.984 27.1651 130.154 27.028 129.363 26.7537C128.589 26.4633 127.919 26.0358 127.355 25.4712C126.709 24.8259 126.225 24.0032 125.903 23.003C125.596 22.0028 125.443 20.4702 125.443 18.4053C125.443 16.3404 125.596 14.8078 125.903 13.8076C126.225 12.8074 126.709 11.9847 127.355 11.3394C127.919 10.7748 128.589 10.3553 129.363 10.0811C130.154 9.7907 130.984 9.64551 131.856 9.64551C132.727 9.64551 133.549 9.7907 134.324 10.0811C135.114 10.3553 135.792 10.7748 136.357 11.3394C137.002 11.9847 137.478 12.8074 137.784 13.8076C138.107 14.8078 138.268 16.3404 138.268 18.4053C138.268 20.4702 138.107 22.0028 137.784 23.003C137.478 24.0032 137.002 24.8259 136.357 25.4712C135.792 26.0358 135.114 26.4633 134.324 26.7537C133.549 27.028 132.727 27.1651 131.856 27.1651ZM131.856 23.7531C132.533 23.7531 133.09 23.5434 133.525 23.124C133.961 22.6884 134.203 22.1076 134.251 21.3817C134.332 20.3654 134.372 19.3732 134.372 18.4053C134.372 17.4374 134.332 16.4452 134.251 15.4289C134.203 14.703 133.961 14.1303 133.525 13.7108C133.09 13.2753 132.533 13.0575 131.856 13.0575C131.178 13.0575 130.622 13.2753 130.186 13.7108C129.75 14.1303 129.508 14.703 129.46 15.4289C129.379 16.4452 129.339 17.4374 129.339 18.4053C129.339 19.3732 129.379 20.3654 129.46 21.3817C129.508 22.1076 129.75 22.6884 130.186 23.124C130.622 23.5434 131.178 23.7531 131.856 23.7531Z" fill="white"/>
<path d="M141.78 9.93589H147.563C149.289 9.93589 150.62 10.3392 151.556 11.1458C152.508 11.9524 152.984 13.0897 152.984 14.5578C152.984 15.3644 152.798 16.0823 152.427 16.7114C152.056 17.3244 151.532 17.7923 150.854 18.1149C151.677 18.373 152.314 18.8489 152.766 19.5426C153.217 20.2363 153.443 21.0832 153.443 22.0834C153.443 23.616 152.967 24.8017 152.016 25.6406C151.08 26.4633 149.757 26.8747 148.047 26.8747H141.78V9.93589ZM147.563 16.8324C148.176 16.8324 148.652 16.6549 148.991 16.3C149.33 15.9451 149.499 15.4773 149.499 14.8965C149.499 14.3158 149.33 13.8721 148.991 13.5656C148.652 13.243 148.176 13.0817 147.563 13.0817H145.289V16.8324H147.563ZM148.047 23.7289C148.66 23.7289 149.128 23.5757 149.451 23.2692C149.773 22.9626 149.935 22.5109 149.935 21.914C149.935 21.3333 149.765 20.8655 149.426 20.5105C149.104 20.1556 148.644 19.9782 148.047 19.9782H145.289V23.7289H148.047Z" fill="white"/>
<path d="M164.739 22.9546H160.529L159.706 26.8747H155.858L159.198 13.0817H157.431V9.93589H165.296L169.409 26.8747H165.562L164.739 22.9546ZM164.061 19.8088L163.021 14.8481L162.852 13.3237C162.852 13.2591 162.827 13.2107 162.779 13.1785C162.731 13.1301 162.682 13.1059 162.634 13.1059C162.521 13.1059 162.448 13.1785 162.416 13.3237L162.247 14.8481L161.206 19.8088H164.061Z" fill="white"/>
<path d="M172.322 9.93589H176.193V23.4869H180.888V26.8747H172.322V9.93589Z" fill="white"/>
<path d="M197.588 27.1651C196.717 27.1651 195.886 27.028 195.096 26.7537C194.321 26.4633 193.652 26.0358 193.087 25.4712C192.442 24.8259 191.958 24.0032 191.635 23.003C191.329 22.0028 191.175 20.4702 191.175 18.4053C191.175 16.3404 191.329 14.8078 191.635 13.8076C191.958 12.8074 192.442 11.9847 193.087 11.3394C193.652 10.7748 194.321 10.3553 195.096 10.0811C195.886 9.7907 196.717 9.64551 197.588 9.64551C198.459 9.64551 199.282 9.7907 200.056 10.0811C200.847 10.3553 201.524 10.7748 202.089 11.3394C202.734 11.9847 203.21 12.8074 203.517 13.8076C203.839 14.8078 204.001 16.3404 204.001 18.4053C204.001 20.4702 203.839 22.0028 203.517 23.003C203.21 24.0032 202.734 24.8259 202.089 25.4712C201.524 26.0358 200.847 26.4633 200.056 26.7537C199.282 27.028 198.459 27.1651 197.588 27.1651ZM197.588 23.7531C198.266 23.7531 198.822 23.5434 199.258 23.124C199.693 22.6884 199.935 22.1076 199.984 21.3817C200.064 20.3654 200.105 19.3732 200.105 18.4053C200.105 17.4374 200.064 16.4452 199.984 15.4289C199.935 14.703 199.693 14.1303 199.258 13.7108C198.822 13.2753 198.266 13.0575 197.588 13.0575C196.91 13.0575 196.354 13.2753 195.918 13.7108C195.483 14.1303 195.241 14.703 195.192 15.4289C195.112 16.4452 195.071 17.4374 195.071 18.4053C195.071 19.3732 195.112 20.3654 195.192 21.3817C195.241 22.1076 195.483 22.6884 195.918 23.124C196.354 23.5434 196.91 23.7531 197.588 23.7531Z" fill="white"/>
<path d="M23.0616 11.7927V33.7357C17.1135 33.9629 12.1439 29.0212 11.9948 23.0344C11.8457 17.0477 16.5865 11.9084 22.4653 11.7885C19.5397 11.7128 16.7593 10.4957 14.7167 8.39653C12.6741 6.29734 11.5309 3.48215 11.5308 0.550988C11.5307 3.48215 10.3875 6.29734 8.34491 8.39653C6.30233 10.4957 3.52191 11.7128 0.596276 11.7885C6.47505 11.9084 11.2054 17.0456 11.0668 23.0344C10.9282 29.0233 5.94806 33.9629 0 33.7357V11.7927H0.306536H0.594176C0.396817 11.7927 0.199458 11.7927 0 11.7927C0 7.19593 1.18625 4.88282 2.49008 3.35406C2.67507 3.13689 2.87728 2.93506 3.09475 2.75055C4.61904 1.44259 6.92855 0.256592 11.5308 0.256592C16.133 0.256592 18.4384 1.44259 19.9668 2.75055C20.1847 2.936 20.3883 3.13775 20.5757 3.35406C21.8753 4.88282 23.0574 7.19593 23.0616 11.7927C22.8516 11.7927 22.6627 11.7927 22.4674 11.7927H22.753H23.0616Z" fill="white"/>
</svg>
