<svg width="29" height="29" viewBox="0 0 29 29" fill="none" xmlns="http://www.w3.org/2000/svg">
<path
  d="M29 14.4279C29 14.428 28.9999 14.428 28.9998 14.428C21.025 14.467 14.5721 20.9438 14.5721 28.9279C14.5721 20.9197 8.08027 14.4279 0.0721393 14.4279C8.05615 14.4279 14.533 7.97505 14.572 0.000177133C14.572 7.97271e-05 14.572 0 14.5721 0C14.5722 0 14.5723 7.88882e-05 14.5723 0.000176295C14.6111 7.95095 21.0491 14.3889 28.9998 14.4277C28.9999 14.4277 29 14.4278 29 14.4279Z"
  fill="white"
/>
<path
  d="M0.0721393 14.4279L0.0394688 14.4279L0.000176022 14.428C7.89223e-05 14.428 0 14.428 0 14.4279C0 14.4278 7.90448e-05 14.4277 0.00017622 14.4277C0.024158 14.4278 0.0481399 14.4279 0.0721393 14.4279Z"
  fill="white"
/>
<path
  d="M14.5721 28.9279C14.5721 28.9519 14.5722 28.9758 14.5723 28.9998C14.5723 28.9999 14.5722 29 14.5721 29C14.572 29 14.572 28.9999 14.572 28.9998C14.5721 28.9758 14.5721 28.9519 14.5721 28.9279Z"
  fill="white"
/>
</svg>
