<svg width="16" height="16" viewBox="0 0 16 16" fill="none" xmlns="http://www.w3.org/2000/svg">
<path d="M16 7.9602C16 7.96025 16 7.9603 15.9999 7.9603C11.6 7.98178 8.0398 11.5552 8.0398 15.9602C8.0398 11.5419 4.45808 7.9602 0.039801 7.9602C4.44477 7.9602 8.01822 4.40003 8.0397 9.77288e-05C8.0397 4.39874e-05 8.03975 0 8.0398 0C8.03986 0 8.0399 4.43089e-05 8.0399 9.80504e-05C8.06132 4.38673 11.6133 7.93868 15.9999 7.9601C16 7.9601 16 7.96014 16 7.9602Z" fill="white"/>
<path d="M0.039801 7.9602L0.0217759 7.96021L9.71156e-05 7.9603C4.35433e-05 7.9603 0 7.96025 0 7.9602C0 7.96015 4.36062e-05 7.9601 9.72202e-05 7.9601C0.0133286 7.96017 0.0265599 7.9602 0.039801 7.9602Z" fill="white"/>
<path d="M8.0398 15.9602C8.0398 15.9734 8.03983 15.9867 8.0399 15.9999C8.0399 16 8.03985 16 8.0398 16C8.03975 16 8.0397 16 8.0397 15.9999C8.03977 15.9867 8.0398 15.9734 8.0398 15.9602Z" fill="white"/>
</svg>
