<svg width="178" height="251" viewBox="0 0 178 251" fill="none" xmlns="http://www.w3.org/2000/svg">
<g>
    <style>
        .st0{
        fill="url(#paint20_linear_62_2576)"
        fill-opacity="0.5";
        stroke: #9599FD;
        stroke-width: 2.22;
        stroke-miterlimit: 5;
        }
        .st0 {
        stroke-dasharray: 1000;
        stroke-dashoffset: 1000;
        animation: dash 5s linear forwards;
        }
        @keyframes dash {
        from{
        stroke-dashoffset: 1000;
        fill-opacity: 0
        }
        to {
        stroke-dashoffset: 0;
        fill-opacity: 0.5
        }
        }
    </style>
    <path class="st0" d="M124.951 59.5294C114.081 43.3647 109.93 23.5578 113.383 4.33058L112.291 4.13437L111.198 3.93806C107.707 23.3687 101.34 41.1893 85.6506 52.4696C69.8351 63.8405 50.2406 68.5597 31.0438 65.6233L31.0389 65.6509L31.0379 65.6508L31.0303 65.6494L31.0226 65.648L31.0149 65.6466L31.0073 65.6453L30.9996 65.6439L30.9919 65.6425L30.9843 65.6411L30.9766 65.6398L30.9689 65.6384L30.9613 65.637L30.9536 65.6356L30.9459 65.6342L30.9383 65.6329L30.9306 65.6315L30.9229 65.6301L30.9153 65.6287L30.9076 65.6274L30.8999 65.626L30.8923 65.6246L30.8846 65.6232L30.8769 65.6219L30.8693 65.6205L30.8616 65.6191L30.8539 65.6177L30.8463 65.6163L30.8386 65.615L30.8309 65.6136L30.8233 65.6122L30.8156 65.6108L30.8079 65.6095L30.8003 65.6081L30.7926 65.6067L30.785 65.6053L30.7773 65.604L30.7696 65.6026L30.762 65.6012L30.7543 65.5998L30.7466 65.5984L30.739 65.5971L30.7313 65.5957L30.7236 65.5943L30.716 65.5929L30.7083 65.5916L30.7006 65.5902L30.693 65.5888L30.6853 65.5874L30.6776 65.586L30.67 65.5847L30.6623 65.5833L30.6546 65.5819L30.647 65.5805L30.6393 65.5792L30.6316 65.5778L30.624 65.5764L30.6163 65.575L30.6086 65.5737L30.601 65.5723L30.5933 65.5709L30.5856 65.5695L30.5779 65.5681L30.5703 65.5668L30.5626 65.5654L30.5549 65.564L30.5473 65.5626L30.5396 65.5613L30.5319 65.5599L30.5243 65.5585L30.5166 65.5571L30.5089 65.5557L30.5013 65.5544L30.4936 65.553L30.4859 65.5516L30.4783 65.5502L30.4706 65.5489L30.4629 65.5475L30.4553 65.5461L30.4476 65.5447L30.4399 65.5433L30.4323 65.542L30.4246 65.5406L30.4169 65.5392L30.4093 65.5378L30.4016 65.5365L30.3939 65.5351L30.3863 65.5337L30.3786 65.5323L30.3709 65.531L30.3633 65.5296L30.3556 65.5282L30.3479 65.5268L30.3402 65.5254L30.3326 65.5241L30.3249 65.5227L30.3172 65.5213L30.3096 65.5199L30.3019 65.5186L30.2942 65.5172L30.2866 65.5158L30.2789 65.5144L30.2712 65.513L30.2636 65.5117L30.2559 65.5103L30.2482 65.5089L30.2405 65.5075L30.2329 65.5062L30.2252 65.5048L30.2175 65.5034L30.2099 65.502L30.2022 65.5006L30.1945 65.4993L30.1869 65.4979L30.1792 65.4965L30.1715 65.4951L30.1639 65.4938L30.1562 65.4924L30.1485 65.491L30.1408 65.4896L30.1332 65.4882L30.1255 65.4869L30.1178 65.4855L30.1102 65.4841L30.1025 65.4827L30.0948 65.4814L30.0871 65.48L30.0795 65.4786L30.0718 65.4772L30.0641 65.4758L30.0565 65.4745L30.0488 65.4731L30.0411 65.4717L30.0334 65.4703L30.0258 65.469L30.0181 65.4676L30.0104 65.4662L30.0028 65.4648L29.9951 65.4634L29.9874 65.4621L29.9797 65.4607L29.9721 65.4593L29.9644 65.4579L29.9567 65.4565L29.9491 65.4552L29.9414 65.4538L29.9337 65.4524L29.926 65.451L29.9184 65.4497L29.9107 65.4483L29.903 65.4469L29.8953 65.4455L29.8877 65.4441L29.88 65.4428L29.8723 65.4414L29.8647 65.44L29.857 65.4386L29.8493 65.4372L29.8416 65.4359L29.834 65.4345L29.8263 65.4331L29.8186 65.4317L29.8109 65.4304L29.8033 65.429L29.7956 65.4276L29.7879 65.4262L29.7802 65.4248L29.7726 65.4235L29.7649 65.4221L29.7572 65.4207L29.7495 65.4193L29.7419 65.4179L29.7342 65.4166L29.7265 65.4152L29.7188 65.4138L29.7112 65.4124L29.7035 65.4111L29.6958 65.4097L29.6881 65.4083L29.6805 65.4069L29.6728 65.4055L29.6651 65.4042L29.6574 65.4028L29.6498 65.4014L29.6421 65.4L29.6344 65.3986L29.6267 65.3973L29.6191 65.3959L29.6114 65.3945L29.6037 65.3931L29.596 65.3917L29.5883 65.3904L29.5807 65.389L29.573 65.3876L29.5653 65.3862L29.5576 65.3849L29.55 65.3835L29.5423 65.3821L29.5346 65.3807L29.5269 65.3793L29.5192 65.378L29.5116 65.3766L29.5039 65.3752L29.4962 65.3738L29.4885 65.3724L29.4809 65.3711L29.4732 65.3697L29.4655 65.3683L29.4578 65.3669L29.4501 65.3655L29.4425 65.3642L29.4348 65.3628L29.4271 65.3614L29.4194 65.36L29.4117 65.3586L29.4041 65.3573L29.3964 65.3559L29.3887 65.3545L29.381 65.3531L29.3733 65.3517L29.3657 65.3504L29.358 65.349L29.3503 65.3476L29.3426 65.3462L29.3349 65.3448L29.3272 65.3435L29.3196 65.3421L29.3119 65.3407L29.3042 65.3393L29.2965 65.3379L29.2888 65.3366L29.2812 65.3352L29.2735 65.3338L29.2658 65.3324L29.2581 65.331L29.2504 65.3297L29.2427 65.3283L29.2351 65.3269L29.2274 65.3255L29.2197 65.3241L29.212 65.3228L29.2043 65.3214L29.1966 65.32L29.189 65.3186L29.1813 65.3172L29.1736 65.3159L29.1659 65.3145L29.1582 65.3131L29.1505 65.3117L29.1465 65.311L29.1428 65.3103L29.1352 65.309L29.1275 65.3076L29.1198 65.3062L29.1121 65.3048L29.1044 65.3034L29.0967 65.3021L29.089 65.3007L29.0814 65.2993L29.0737 65.2979L29.066 65.2965L29.0583 65.2952L29.0506 65.2938L29.0429 65.2924L29.0352 65.291L29.0275 65.2896L29.0199 65.2882L29.0122 65.2869L29.0045 65.2855L28.9968 65.2841L28.9891 65.2827L28.9814 65.2813L28.9737 65.28L28.966 65.2786L28.9584 65.2772L28.9507 65.2758L28.943 65.2744L28.9353 65.2731L28.9276 65.2717L28.9199 65.2703L28.9122 65.2689L28.9045 65.2675L28.8968 65.2661L28.8891 65.2648L28.8815 65.2634L28.8738 65.262L28.8661 65.2606L28.8584 65.2592L28.8507 65.2579L28.843 65.2565L28.8353 65.2551L28.8276 65.2537L28.8199 65.2523L28.8122 65.2509L28.8045 65.2496L28.7968 65.2482L28.7891 65.2468L28.7815 65.2454L28.7738 65.244L28.7661 65.2427L28.7584 65.2413L28.7507 65.2399L28.743 65.2385L28.7353 65.2371L28.7276 65.2357L28.7199 65.2344L28.7122 65.233L28.7045 65.2316L28.6968 65.2302L28.6891 65.2288L28.6814 65.2275L28.6737 65.2261L28.666 65.2247L28.6583 65.2233L28.6506 65.2219L28.6429 65.2205L28.6353 65.2192L28.6276 65.2178L28.6199 65.2164L28.6122 65.215L28.6045 65.2136L28.5968 65.2122L28.5891 65.2109L28.5814 65.2095L28.5737 65.2081L28.566 65.2067L28.5583 65.2053L28.5506 65.2039L28.5429 65.2026L28.5352 65.2012L28.5275 65.1998L28.5198 65.1984L28.5121 65.197L28.5044 65.1956L28.4967 65.1943L28.489 65.1929L28.4813 65.1915L28.4736 65.1901L28.4659 65.1887L28.4582 65.1873L28.4505 65.186L28.4428 65.1846L28.4351 65.1832L28.4274 65.1818L28.4197 65.1804L28.412 65.179L28.4043 65.1777L28.3966 65.1763L28.3888 65.1749L28.3811 65.1735L28.3734 65.1721L28.3657 65.1707L28.358 65.1694L28.3503 65.168L28.3426 65.1666L28.3349 65.1652L28.3272 65.1638L28.3195 65.1624L28.3118 65.1611L28.3041 65.1597L28.2964 65.1583L28.2887 65.1569L28.281 65.1555L28.2733 65.1541L28.2656 65.1527L28.2579 65.1514L28.2502 65.15L28.2424 65.1486L28.2347 65.1472L28.227 65.1458L28.2193 65.1444L28.2116 65.1431L28.2103 65.1428C33.7209 35.5285 44.1046 22.023 54.2209 13.6923L54.2215 13.6919C55.6613 12.5048 57.194 11.4365 58.8045 10.4975L58.8045 10.4975L58.8098 10.4943C64.6119 7.06801 70.455 3.93349 78.5965 2.30592C86.7483 0.676302 97.2836 0.543503 112.446 3.26736C142.732 8.70785 156.345 19.2294 164.724 29.5217L164.725 29.5241C165.912 30.973 166.986 32.5106 167.941 34.1236C174.497 45.4493 179.502 61.7197 174.387 91.4021L174.385 91.4018L174.378 91.4004L174.37 91.399L174.362 91.3976L174.354 91.3962L174.346 91.3948L174.339 91.3934L174.331 91.392L174.323 91.3906L174.315 91.3892L174.308 91.3878L174.3 91.3864L174.292 91.385L174.284 91.3836L174.277 91.3822L174.269 91.3808L174.261 91.3794L174.253 91.378L174.245 91.3766L174.238 91.3752L174.23 91.3738L174.222 91.3724L174.214 91.3711L174.207 91.3697L174.199 91.3683L174.191 91.3669L174.183 91.3655L174.176 91.3641L174.168 91.3627L174.16 91.3613L174.153 91.3599L174.145 91.3585L174.137 91.3572L174.129 91.3558L174.122 91.3544L174.114 91.353L174.106 91.3516L174.098 91.3502L174.091 91.3488L174.083 91.3474L174.075 91.346L174.068 91.3447L174.06 91.3433L174.052 91.3419L174.044 91.3405L174.037 91.3391L174.029 91.3377L174.021 91.3364L174.014 91.335L174.006 91.3336L173.998 91.3322L173.99 91.3308L173.983 91.3294L173.975 91.3281L173.967 91.3267L173.96 91.3253L173.952 91.3239L173.944 91.3225L173.937 91.3211L173.929 91.3198L173.921 91.3184L173.914 91.317L173.906 91.3156L173.898 91.3142L173.891 91.3129L173.883 91.3115L173.875 91.3101L173.868 91.3087L173.86 91.3074L173.852 91.306L173.845 91.3046L173.837 91.3032L173.829 91.3018L173.822 91.3005L173.814 91.2991L173.806 91.2977L173.799 91.2963L173.791 91.295L173.783 91.2936L173.776 91.2922L173.768 91.2908L173.76 91.2895L173.753 91.2881L173.745 91.2867L173.737 91.2853L173.73 91.284L173.722 91.2826L173.714 91.2812L173.707 91.2799L173.699 91.2785L173.691 91.2771L173.684 91.2757L173.676 91.2744L173.669 91.273L173.661 91.2716L173.653 91.2702L173.646 91.2689L173.638 91.2675L173.63 91.2661L173.623 91.2648L173.615 91.2634L173.608 91.262L173.6 91.2607L173.592 91.2593L173.585 91.2579L173.577 91.2565L173.569 91.2552L173.562 91.2538L173.554 91.2524L173.547 91.2511L173.539 91.2497L173.531 91.2483L173.524 91.247L173.516 91.2456L173.508 91.2442L173.501 91.2429L173.493 91.2415L173.486 91.2401L173.478 91.2388L173.47 91.2374L173.463 91.236L173.455 91.2347L173.448 91.2333L173.44 91.2319L173.438 91.2316L173.432 91.2306L173.425 91.2292L173.417 91.2278L173.41 91.2265L173.402 91.2251L173.394 91.2238L173.387 91.2224L173.379 91.221L173.372 91.2197L173.364 91.2183L173.357 91.2169L173.349 91.2156L173.341 91.2142L173.334 91.2128L173.326 91.2115L173.319 91.2101L173.311 91.2088L173.303 91.2074L173.296 91.206L173.288 91.2047L173.281 91.2033L173.273 91.202L173.266 91.2006L173.258 91.1992L173.25 91.1979L173.243 91.1965L173.235 91.1951L173.228 91.1938L173.22 91.1924L173.213 91.1911L173.205 91.1897L173.197 91.1883L173.19 91.187L173.182 91.1856L173.175 91.1843L173.167 91.1829L173.16 91.1816L173.152 91.1802L173.144 91.1788L173.137 91.1775L173.129 91.1761L173.122 91.1748L173.114 91.1734L173.107 91.172L173.099 91.1707L173.091 91.1693L173.084 91.168L173.076 91.1666L173.069 91.1653L173.061 91.1639L173.054 91.1625L173.046 91.1612L173.039 91.1598L173.031 91.1585L173.024 91.1571L173.016 91.1558L173.008 91.1544L173.001 91.153L172.993 91.1517L172.986 91.1503L172.978 91.149L172.971 91.1476L172.963 91.1463L172.956 91.1449L172.948 91.1435L172.94 91.1422L172.933 91.1408L172.925 91.1395L172.918 91.1381L172.91 91.1368L172.903 91.1354L172.895 91.1341L172.888 91.1327L172.88 91.1314L172.873 91.13L172.865 91.1286L172.857 91.1273L172.85 91.1259L172.842 91.1246L172.835 91.1232L172.827 91.1219L172.82 91.1205L172.812 91.1192L172.805 91.1178L172.797 91.1165L172.79 91.1151L172.782 91.1137L172.775 91.1124L172.767 91.111L172.759 91.1097L172.752 91.1083L172.744 91.107L172.737 91.1056L172.729 91.1043L172.722 91.1029L172.714 91.1016L172.707 91.1002L172.699 91.0989L172.692 91.0975L172.684 91.0962L172.677 91.0948L172.669 91.0934L172.662 91.0921L172.654 91.0907L172.646 91.0894L172.639 91.088L172.631 91.0867L172.624 91.0853L172.616 91.084L172.609 91.0826L172.601 91.0813L172.594 91.0799L172.586 91.0786L172.579 91.0772L172.571 91.0759L172.564 91.0745L172.556 91.0732L172.549 91.0718L172.541 91.0704L172.534 91.0691L172.526 91.0677L172.518 91.0664L172.511 91.065L172.503 91.0637L172.496 91.0623L172.488 91.061L172.481 91.0596L172.473 91.0583L172.466 91.0569L172.458 91.0556L172.451 91.0542L172.443 91.0529L172.436 91.0515L172.428 91.0502L172.421 91.0488L172.413 91.0475L172.406 91.0461L172.398 91.0448L172.391 91.0434L172.383 91.0421L172.375 91.0407L172.368 91.0393L172.36 91.038L172.353 91.0366L172.345 91.0353L172.338 91.0339L172.33 91.0326L172.323 91.0312L172.315 91.0299L172.308 91.0285L172.3 91.0272L172.293 91.0258L172.285 91.0245L172.278 91.0231L172.27 91.0218L172.263 91.0204L172.255 91.0191L172.247 91.0177L172.24 91.0164L172.232 91.015L172.225 91.0136L172.217 91.0123L172.21 91.0109L172.202 91.0096L172.195 91.0082L172.187 91.0069L172.18 91.0055L172.172 91.0042L172.165 91.0028L172.157 91.0015L172.15 91.0001L172.142 90.9988L172.134 90.9974L172.127 90.9961L172.119 90.9947L172.112 90.9933L172.104 90.992L172.097 90.9906L172.089 90.9893L172.082 90.9879L172.074 90.9866L172.067 90.9852L172.059 90.9839L172.052 90.9825L172.044 90.9812L172.037 90.9798L172.029 90.9785L172.021 90.9771L172.014 90.9757L172.006 90.9744L171.999 90.973L171.991 90.9717L171.984 90.9703L171.976 90.969L171.969 90.9676L171.961 90.9663L171.954 90.9649L171.946 90.9636L171.938 90.9622L171.931 90.9608L171.923 90.9595L171.916 90.9581L171.908 90.9568L171.901 90.9554L171.893 90.9541L171.886 90.9527L171.878 90.9513L171.871 90.95L171.863 90.9486L171.855 90.9473L171.848 90.9459L171.84 90.9446L171.833 90.9432L171.825 90.9419L171.818 90.9405L171.81 90.9391L171.803 90.9378L171.795 90.9364L171.787 90.9351L171.78 90.9337L171.772 90.9323L171.765 90.931L171.757 90.9296L171.75 90.9283L171.742 90.9269L171.735 90.9256L171.727 90.9242L171.719 90.9228L171.712 90.9215L171.704 90.9201L171.697 90.9188L171.689 90.9174L171.682 90.916L171.674 90.9147L171.666 90.9133L171.659 90.912L171.651 90.9106L171.644 90.9092L171.636 90.9079L171.629 90.9065L171.621 90.9052L171.613 90.9038L171.606 90.9024L171.598 90.9011L171.591 90.8997L171.583 90.8984L171.576 90.897L171.568 90.8956L171.56 90.8943L171.56 90.8941L171.565 90.8665C152.546 86.9378 135.82 75.6939 124.951 59.5294ZM85.7521 153.822C77.8597 192.6 40.1233 218.981 1.96373 211.229L27.8144 67.3272L27.8191 67.3281L27.8268 67.3295L27.8345 67.3308L27.8422 67.3322L27.8499 67.3336L27.8576 67.335L27.8653 67.3364L27.873 67.3378L27.8808 67.3392L27.8885 67.3405L27.8962 67.3419L27.9039 67.3433L27.9116 67.3447L27.9193 67.3461L27.927 67.3475L27.9347 67.3488L27.9424 67.3502L27.9501 67.3516L27.9578 67.353L27.9655 67.3544L27.9732 67.3558L27.9809 67.3571L27.9886 67.3585L27.9963 67.3599L28.004 67.3613L28.0117 67.3627L28.0194 67.3641L28.0271 67.3655L28.0348 67.3668L28.0425 67.3682L28.0502 67.3696L28.058 67.371L28.0657 67.3724L28.0734 67.3738L28.0811 67.3751L28.0888 67.3765L28.0965 67.3779L28.1042 67.3793L28.1119 67.3807L28.1196 67.3821L28.1273 67.3834L28.135 67.3848L28.1427 67.3862L28.1504 67.3876L28.1581 67.389L28.1658 67.3904L28.1735 67.3917L28.1812 67.3931L28.1888 67.3945L28.1965 67.3959L28.2042 67.3973L28.2119 67.3987L28.2196 67.4L28.2273 67.4014L28.235 67.4028L28.2427 67.4042L28.2504 67.4056L28.2581 67.4069L28.2658 67.4083L28.2735 67.4097L28.2812 67.4111L28.2889 67.4125L28.2966 67.4139L28.3043 67.4152L28.312 67.4166L28.3197 67.418L28.3274 67.4194L28.3351 67.4208L28.3428 67.4222L28.3505 67.4235L28.3582 67.4249L28.3659 67.4263L28.3736 67.4277L28.3812 67.4291L28.3889 67.4304L28.3966 67.4318L28.4043 67.4332L28.412 67.4346L28.4197 67.436L28.4274 67.4374L28.4351 67.4387L28.4428 67.4401L28.4505 67.4415L28.4582 67.4429L28.4659 67.4443L28.4736 67.4456L28.4812 67.447L28.4889 67.4484L28.4966 67.4498L28.5043 67.4512L28.512 67.4526L28.5197 67.4539L28.5274 67.4553L28.5351 67.4567L28.5428 67.4581L28.5505 67.4595L28.5581 67.4608L28.5658 67.4622L28.5735 67.4636L28.5812 67.465L28.5889 67.4664L28.5966 67.4677L28.6043 67.4691L28.612 67.4705L28.6197 67.4719L28.6273 67.4733L28.635 67.4747L28.6427 67.476L28.6504 67.4774L28.6581 67.4788L28.6658 67.4802L28.6735 67.4816L28.6812 67.4829L28.6888 67.4843L28.6965 67.4857L28.7042 67.4871L28.7119 67.4885L28.7196 67.4898L28.7273 67.4912L28.735 67.4926L28.7426 67.494L28.7503 67.4954L28.7539 67.496L28.758 67.4967L28.7657 67.4981L28.7734 67.4995L28.7811 67.5009L28.7887 67.5023L28.7964 67.5036L28.8041 67.505L28.8118 67.5064L28.8195 67.5078L28.8272 67.5092L28.8349 67.5105L28.8425 67.5119L28.8502 67.5133L28.8579 67.5147L28.8656 67.5161L28.8733 67.5175L28.881 67.5188L28.8886 67.5202L28.8963 67.5216L28.904 67.523L28.9117 67.5244L28.9194 67.5257L28.927 67.5271L28.9347 67.5285L28.9424 67.5299L28.9501 67.5313L28.9578 67.5326L28.9655 67.534L28.9731 67.5354L28.9808 67.5368L28.9885 67.5382L28.9962 67.5395L29.0039 67.5409L29.0115 67.5423L29.0192 67.5437L29.0269 67.545L29.0346 67.5464L29.0423 67.5478L29.0499 67.5492L29.0576 67.5506L29.0653 67.5519L29.073 67.5533L29.0807 67.5547L29.0883 67.5561L29.096 67.5575L29.1037 67.5588L29.1114 67.5602L29.119 67.5616L29.1267 67.563L29.1344 67.5644L29.1421 67.5657L29.1498 67.5671L29.1574 67.5685L29.1651 67.5699L29.1728 67.5713L29.1805 67.5726L29.1881 67.574L29.1958 67.5754L29.2035 67.5768L29.2112 67.5782L29.2189 67.5795L29.2265 67.5809L29.2342 67.5823L29.2419 67.5837L29.2496 67.585L29.2572 67.5864L29.2649 67.5878L29.2726 67.5892L29.2803 67.5906L29.2879 67.5919L29.2956 67.5933L29.3033 67.5947L29.311 67.5961L29.3186 67.5975L29.3263 67.5988L29.334 67.6002L29.3417 67.6016L29.3494 67.603L29.357 67.6044L29.3647 67.6057L29.3724 67.6071L29.38 67.6085L29.3877 67.6099L29.3954 67.6112L29.4031 67.6126L29.4107 67.614L29.4184 67.6154L29.4261 67.6168L29.4338 67.6181L29.4414 67.6195L29.4491 67.6209L29.4568 67.6223L29.4645 67.6237L29.4721 67.625L29.4798 67.6264L29.4875 67.6278L29.4952 67.6292L29.5028 67.6305L29.5105 67.6319L29.5182 67.6333L29.5258 67.6347L29.5335 67.6361L29.5412 67.6374L29.5489 67.6388L29.5565 67.6402L29.5642 67.6416L29.5719 67.643L29.5796 67.6443L29.5872 67.6457L29.5949 67.6471L29.6026 67.6485L29.6102 67.6498L29.6179 67.6512L29.6256 67.6526L29.6333 67.654L29.6409 67.6554L29.6486 67.6567L29.6563 67.6581L29.6639 67.6595L29.6716 67.6609L29.6793 67.6622L29.687 67.6636L29.6946 67.665L29.7023 67.6664L29.71 67.6678L29.7176 67.6691L29.7253 67.6705L29.733 67.6719L29.7407 67.6733L29.7483 67.6746L29.756 67.676L29.7637 67.6774L29.7713 67.6788L29.779 67.6802L29.7867 67.6815L29.7943 67.6829L29.802 67.6843L29.8097 67.6857L29.8174 67.687L29.825 67.6884L29.8327 67.6898L29.8404 67.6912L29.848 67.6926L29.8557 67.6939L29.8634 67.6953L29.871 67.6967L29.8787 67.6981L29.8864 67.6994L29.894 67.7008L29.9017 67.7022L29.9094 67.7036L29.9171 67.705L29.9247 67.7063L29.9324 67.7077L29.9401 67.7091L29.9477 67.7105L29.9554 67.7118L29.9631 67.7132L29.9707 67.7146L29.9784 67.716L29.9861 67.7174L29.9937 67.7187L30.0014 67.7201L30.0091 67.7215L30.0167 67.7229L30.0244 67.7242L30.0321 67.7256L30.0397 67.727L30.0474 67.7284L30.0551 67.7298L30.0628 67.7311L30.0704 67.7325L30.0781 67.7339L30.0858 67.7353L30.0934 67.7366L30.1011 67.738L30.1088 67.7394L30.1164 67.7408L30.1241 67.7421L30.1318 67.7435L30.1394 67.7449L30.1471 67.7463L30.1548 67.7477L30.1624 67.749L30.1701 67.7504L30.1778 67.7518L30.1854 67.7532L30.1931 67.7545L30.2008 67.7559L30.2084 67.7573L30.2161 67.7587L30.2238 67.7601L30.2314 67.7614L30.2391 67.7628L30.2468 67.7642L30.2544 67.7656L30.2621 67.7669L30.2698 67.7683L30.2774 67.7697L30.2851 67.7711L30.2928 67.7725L30.3004 67.7738L30.3081 67.7752L30.3158 67.7766L30.3234 67.778L30.3311 67.7793L30.3388 67.7807L30.3464 67.7821L30.3541 67.7835L30.3618 67.7848L30.3694 67.7862L30.3771 67.7876L30.3848 67.789L30.3924 67.7904L30.4001 67.7917L30.4078 67.7931L30.4154 67.7945L30.4231 67.7959L30.4308 67.7972L30.4384 67.7986L30.4461 67.8L30.4538 67.8014L30.4614 67.8027L30.4691 67.8041L30.4768 67.8055L30.4844 67.8069L30.4921 67.8083L30.4998 67.8096L30.5074 67.811L30.5151 67.8124L30.5228 67.8138L30.5304 67.8151L30.5381 67.8165L30.5458 67.8179L30.5534 67.8193L30.5611 67.8207L30.5688 67.822L30.5764 67.8234L30.5841 67.8248L30.5918 67.8262L30.5994 67.8275L30.6071 67.8289L30.6147 67.8303L30.6224 67.8317L30.6301 67.833L30.6377 67.8344L30.6454 67.8358L30.6531 67.8372L30.6607 67.8386L30.6658 67.8105C68.8508 75.485 93.7159 114.693 85.7521 153.822ZM173.993 93.5868L173.999 93.5879L146.057 249.13C127.131 246.066 111.613 232.524 101.484 214.735C91.168 196.618 86.5369 174.25 89.5802 154.508C95.6616 115.058 132.687 86.9527 171.158 93.0485L171.153 93.0766L171.16 93.0779L171.168 93.0793L171.175 93.0807L171.183 93.082L171.191 93.0834L171.198 93.0847L171.206 93.0861L171.213 93.0875L171.221 93.0888L171.228 93.0902L171.236 93.0915L171.244 93.0929L171.251 93.0943L171.259 93.0956L171.266 93.097L171.274 93.0983L171.281 93.0997L171.289 93.1011L171.297 93.1024L171.304 93.1038L171.312 93.1051L171.319 93.1065L171.327 93.1079L171.334 93.1092L171.342 93.1106L171.35 93.1119L171.357 93.1133L171.365 93.1147L171.372 93.116L171.38 93.1174L171.387 93.1187L171.395 93.1201L171.402 93.1214L171.41 93.1228L171.418 93.1242L171.425 93.1255L171.433 93.1269L171.44 93.1282L171.448 93.1296L171.455 93.1309L171.463 93.1323L171.47 93.1337L171.478 93.135L171.486 93.1364L171.493 93.1377L171.501 93.1391L171.508 93.1404L171.516 93.1418L171.523 93.1432L171.531 93.1445L171.538 93.1459L171.546 93.1472L171.553 93.1486L171.561 93.1499L171.569 93.1513L171.576 93.1526L171.584 93.154L171.591 93.1554L171.599 93.1567L171.606 93.1581L171.614 93.1594L171.621 93.1608L171.629 93.1621L171.636 93.1635L171.644 93.1648L171.652 93.1662L171.659 93.1675L171.667 93.1689L171.674 93.1703L171.682 93.1716L171.689 93.173L171.697 93.1743L171.704 93.1757L171.712 93.177L171.719 93.1784L171.727 93.1797L171.734 93.1811L171.742 93.1824L171.75 93.1838L171.757 93.1851L171.765 93.1865L171.772 93.1878L171.78 93.1892L171.787 93.1906L171.795 93.1919L171.802 93.1933L171.81 93.1946L171.817 93.196L171.825 93.1973L171.832 93.1987L171.84 93.2L171.847 93.2014L171.855 93.2027L171.862 93.2041L171.87 93.2054L171.878 93.2068L171.885 93.2081L171.893 93.2095L171.9 93.2108L171.908 93.2122L171.915 93.2136L171.923 93.2149L171.93 93.2163L171.938 93.2176L171.945 93.219L171.953 93.2203L171.96 93.2217L171.968 93.223L171.975 93.2244L171.983 93.2257L171.99 93.2271L171.998 93.2284L172.006 93.2298L172.013 93.2311L172.021 93.2325L172.028 93.2338L172.036 93.2352L172.043 93.2365L172.051 93.2379L172.058 93.2392L172.066 93.2406L172.073 93.242L172.081 93.2433L172.088 93.2447L172.096 93.246L172.103 93.2474L172.111 93.2487L172.118 93.2501L172.126 93.2514L172.134 93.2528L172.141 93.2541L172.149 93.2555L172.156 93.2568L172.164 93.2582L172.171 93.2595L172.179 93.2609L172.186 93.2622L172.194 93.2636L172.201 93.2649L172.209 93.2663L172.216 93.2676L172.224 93.269L172.231 93.2704L172.239 93.2717L172.246 93.2731L172.254 93.2744L172.262 93.2758L172.269 93.2771L172.277 93.2785L172.284 93.2798L172.292 93.2812L172.299 93.2825L172.307 93.2839L172.314 93.2852L172.322 93.2866L172.329 93.2879L172.337 93.2893L172.344 93.2906L172.352 93.292L172.359 93.2934L172.367 93.2947L172.375 93.2961L172.382 93.2974L172.39 93.2988L172.397 93.3001L172.405 93.3015L172.412 93.3028L172.42 93.3042L172.427 93.3055L172.435 93.3069L172.442 93.3083L172.45 93.3096L172.457 93.311L172.465 93.3123L172.473 93.3137L172.48 93.315L172.488 93.3164L172.495 93.3177L172.503 93.3191L172.51 93.3204L172.518 93.3218L172.525 93.3232L172.533 93.3245L172.54 93.3259L172.548 93.3272L172.555 93.3286L172.563 93.3299L172.571 93.3313L172.578 93.3326L172.586 93.334L172.593 93.3354L172.601 93.3367L172.608 93.3381L172.616 93.3394L172.623 93.3408L172.631 93.3421L172.639 93.3435L172.646 93.3449L172.654 93.3462L172.661 93.3476L172.669 93.3489L172.676 93.3503L172.684 93.3516L172.691 93.353L172.699 93.3544L172.707 93.3557L172.714 93.3571L172.722 93.3584L172.729 93.3598L172.737 93.3611L172.744 93.3625L172.752 93.3639L172.759 93.3652L172.767 93.3666L172.775 93.3679L172.782 93.3693L172.79 93.3707L172.797 93.372L172.805 93.3734L172.812 93.3747L172.82 93.3761L172.828 93.3775L172.835 93.3788L172.843 93.3802L172.85 93.3815L172.858 93.3829L172.865 93.3843L172.873 93.3856L172.881 93.387L172.888 93.3883L172.896 93.3897L172.903 93.3911L172.911 93.3924L172.918 93.3938L172.926 93.3951L172.934 93.3965L172.941 93.3979L172.949 93.3992L172.956 93.4006L172.964 93.402L172.972 93.4033L172.979 93.4047L172.987 93.4061L172.994 93.4074L173.002 93.4088L173.01 93.4101L173.017 93.4115L173.025 93.4129L173.032 93.4142L173.04 93.4156L173.046 93.4166L173.048 93.417L173.055 93.4183L173.063 93.4197L173.07 93.4211L173.078 93.4224L173.086 93.4238L173.093 93.4252L173.101 93.4265L173.108 93.4279L173.116 93.4293L173.124 93.4306L173.131 93.432L173.139 93.4334L173.146 93.4347L173.154 93.4361L173.162 93.4375L173.169 93.4388L173.177 93.4402L173.185 93.4416L173.192 93.4429L173.2 93.4443L173.207 93.4457L173.215 93.447L173.223 93.4484L173.23 93.4498L173.238 93.4512L173.246 93.4525L173.253 93.4539L173.261 93.4553L173.268 93.4566L173.276 93.458L173.284 93.4594L173.291 93.4608L173.299 93.4621L173.307 93.4635L173.314 93.4649L173.322 93.4662L173.33 93.4676L173.337 93.469L173.345 93.4704L173.352 93.4717L173.36 93.4731L173.368 93.4745L173.375 93.4759L173.383 93.4772L173.391 93.4786L173.398 93.48L173.406 93.4814L173.414 93.4827L173.421 93.4841L173.429 93.4855L173.437 93.4869L173.444 93.4882L173.452 93.4896L173.46 93.491L173.467 93.4924L173.475 93.4938L173.483 93.4951L173.49 93.4965L173.498 93.4979L173.506 93.4993L173.513 93.5007L173.521 93.502L173.529 93.5034L173.536 93.5048L173.544 93.5062L173.552 93.5076L173.559 93.5089L173.567 93.5103L173.575 93.5117L173.583 93.5131L173.59 93.5145L173.598 93.5158L173.606 93.5172L173.613 93.5186L173.621 93.52L173.629 93.5214L173.636 93.5228L173.644 93.5241L173.652 93.5255L173.66 93.5269L173.667 93.5283L173.675 93.5297L173.683 93.5311L173.69 93.5325L173.698 93.5338L173.706 93.5352L173.714 93.5366L173.721 93.538L173.729 93.5394L173.737 93.5408L173.745 93.5422L173.752 93.5436L173.76 93.545L173.768 93.5463L173.775 93.5477L173.783 93.5491L173.791 93.5505L173.799 93.5519L173.806 93.5533L173.814 93.5547L173.822 93.5561L173.83 93.5575L173.837 93.5589L173.845 93.5603L173.853 93.5616L173.861 93.563L173.868 93.5644L173.876 93.5658L173.884 93.5672L173.892 93.5686L173.9 93.57L173.907 93.5714L173.915 93.5728L173.923 93.5742L173.931 93.5756L173.938 93.577L173.946 93.5784L173.954 93.5798L173.962 93.5812L173.97 93.5826L173.977 93.584L173.985 93.5854L173.993 93.5868Z" fill="url(#paint0_linear_769_181)" fill-opacity="0.5" stroke="#9599FD" stroke-width="2.22"/>
</g>
<defs>
<linearGradient id="paint0_linear_769_181" x1="175.497" y1="91.527" x2="-52.4911" y2="197.306" gradientUnits="userSpaceOnUse">
<stop stop-color="#5F45FF" stop-opacity="0.55"/>
<stop offset="1" stop-color="#C4C4C4" stop-opacity="0"/>
</linearGradient>
</defs>
</svg>
