<?xml version="1.0" standalone="no"?>
<!DOCTYPE svg PUBLIC "-//W3C//DTD SVG 20010904//EN"
 "http://www.w3.org/TR/2001/REC-SVG-20010904/DTD/svg10.dtd">
<svg version="1.0" xmlns="http://www.w3.org/2000/svg"
 width="260.000000pt" height="260.000000pt" viewBox="0 0 260.000000 260.000000"
 preserveAspectRatio="xMidYMid meet">
<metadata>
Created by potrace 1.14, written by Peter Selinger 2001-2017
</metadata>
<g transform="translate(0.000000,260.000000) scale(0.100000,-0.100000)"
fill="#000000" stroke="none">
<path d="M1079 2289 c-46 -9 -110 -27 -142 -39 -125 -47 -241 -169 -287 -302
-46 -134 -48 -179 -50 -942 l0 -719 69 7 c326 30 583 300 596 627 6 152 -28
272 -112 401 -97 148 -271 263 -427 283 -47 5 -60 15 -21 15 15 0 60 9 99 21
253 75 451 297 481 544 4 31 9 55 10 53 2 -2 6 -24 9 -50 37 -278 284 -527
559 -565 l52 -7 -55 -11 c-97 -20 -160 -46 -235 -96 -353 -237 -403 -733 -103
-1030 116 -114 239 -171 406 -186 l62 -5 -1 723 c-1 753 -3 802 -44 924 -58
170 -169 278 -340 330 -44 14 -109 29 -145 34 -102 14 -288 10 -381 -10z"/>
</g>
</svg>
