<svg width="569" height="825" viewBox="0 0 569 825" fill="none" xmlns="http://www.w3.org/2000/svg">
<g clip-path="url(#clip0)">
<path d="M569 284.189V824.75C422.243 830.344 299.626 708.608 295.948 561.126C292.27 413.644 409.241 287.038 554.288 284.086C482.104 282.222 413.502 252.238 363.106 200.525C312.709 148.812 284.503 79.4607 284.5 7.25237C284.497 79.4607 256.291 148.812 205.895 200.525C155.498 252.238 86.8962 282.222 14.7119 284.086C159.759 287.038 276.471 413.592 273.052 561.126C269.633 708.66 146.757 830.344 0 824.75V284.189H7.56318H14.6601C9.7907 284.189 4.92125 284.189 0 284.189C0 170.949 29.2685 113.966 61.4379 76.3053C66.0021 70.9554 70.9914 65.9834 76.3571 61.4379C113.966 29.2167 170.949 0 284.5 0C398.051 0 454.931 29.2167 492.643 61.4379C498.02 66.0064 503.042 70.9764 507.666 76.3053C539.732 113.966 568.896 170.949 569 284.189C563.82 284.189 559.158 284.189 554.34 284.189H561.385H569Z" fill="url(#paint0_linear)"/>
</g>
<defs>
<linearGradient id="paint0_linear" x1="-0.725237" y1="412.452" x2="568.275" y2="412.452" gradientUnits="userSpaceOnUse">
<stop stop-color="#00CFFF"/>
<stop offset="0.18" stop-color="#00C0EE"/>
<stop offset="0.44" stop-color="#00AFDB"/>
<stop offset="0.71" stop-color="#00A4D0"/>
<stop offset="1" stop-color="#00A1CC"/>
</linearGradient>
<clipPath id="clip0">
<rect width="569" height="824.905" fill="white"/>
</clipPath>
</defs>
</svg>
