<svg width="498" height="1473" viewBox="0 0 498 1473" fill="none" xmlns="http://www.w3.org/2000/svg">
<g clip-path="url(#clip0)">
<path d="M1015.84 507.365V1472.43C753.834 1482.42 534.925 1265.08 528.359 1001.78C521.793 738.482 730.621 512.452 989.575 507.18C860.704 503.852 738.229 450.322 648.255 357.999C558.281 265.676 507.925 141.862 507.92 12.9477C507.915 141.862 457.559 265.676 367.585 357.999C277.611 450.322 155.136 503.852 26.2653 507.18C285.219 512.452 493.585 738.389 487.481 1001.78C481.377 1265.18 262.006 1482.42 0 1472.43V507.365H13.5026H26.1729C17.4794 507.365 8.78594 507.365 0 507.365C0 305.196 52.2532 203.464 109.686 136.228C117.834 126.677 126.741 117.801 136.321 109.686C203.464 52.1608 305.196 0 507.92 0C710.644 0 812.191 52.1608 879.519 109.686C889.118 117.842 898.084 126.715 906.339 136.228C963.587 203.464 1015.66 305.196 1015.84 507.365C1006.59 507.365 998.268 507.365 989.667 507.365H1002.24H1015.84Z" fill="url(#paint0_linear)"/>
</g>
<defs>
<linearGradient id="paint0_linear" x1="-1.29477" y1="736.355" x2="1014.55" y2="736.355" gradientUnits="userSpaceOnUse">
<stop stop-color="#00CFFF"/>
<stop offset="0.18" stop-color="#00C0EE"/>
<stop offset="0.44" stop-color="#00AFDB"/>
<stop offset="0.71" stop-color="#00A4D0"/>
<stop offset="1" stop-color="#00A1CC"/>
</linearGradient>
<clipPath id="clip0">
<rect width="1015.84" height="1472.71" fill="white"/>
</clipPath>
</defs>
</svg>
