<svg width="213" height="214" viewBox="0 0 213 214" fill="none" xmlns="http://www.w3.org/2000/svg">
<g clip-path="url(#clip0)">
<path d="M0 160.671V107.455C14.6936 107.455 26.6535 119.394 26.6535 134.063C26.6535 148.731 14.6936 160.671 0 160.671Z" fill="#00A1CC"/>
<path d="M26.5396 160.671V107.455C41.2331 107.455 53.193 119.394 53.193 134.063C53.193 148.731 41.2331 160.671 26.5396 160.671Z" fill="#00A1CC"/>
<path d="M53.4209 107.341H106.728C106.728 122.01 94.768 133.949 80.0744 133.949C65.3808 133.949 53.4209 122.123 53.4209 107.341Z" fill="#00A1CC"/>
<path d="M53.4209 134.404H106.728C106.728 149.072 94.768 161.012 80.0744 161.012C65.3808 161.012 53.4209 149.072 53.4209 134.404Z" fill="#00A1CC"/>
<path d="M106.842 160.671V213.886C92.1481 213.886 80.1882 201.947 80.1882 187.278C80.1882 172.61 92.1481 160.671 106.842 160.671Z" fill="#00A1CC"/>
<path d="M79.9604 160.671V213.886C65.2668 213.886 53.3069 201.947 53.3069 187.278C53.3069 172.61 65.2668 160.671 79.9604 160.671Z" fill="#00A1CC"/>
<path d="M53.421 214H0.114014C0.114014 199.332 12.0739 187.392 26.7675 187.392C41.4611 187.392 53.421 199.332 53.421 214Z" fill="#00A1CC"/>
<path d="M53.421 187.051H0.114014C0.114014 172.383 12.0739 160.443 26.7675 160.443C41.4611 160.443 53.421 172.269 53.421 187.051Z" fill="#00A1CC"/>
<path d="M106.158 160.671V107.455C120.852 107.455 132.812 119.394 132.812 134.063C132.812 148.731 120.852 160.671 106.158 160.671Z" fill="#00A1CC"/>
<path d="M132.698 160.671V107.455C147.391 107.455 159.351 119.394 159.351 134.063C159.351 148.731 147.391 160.671 132.698 160.671Z" fill="#00A1CC"/>
<path d="M159.579 107.341H212.886C212.886 122.01 200.926 133.949 186.233 133.949C171.539 133.949 159.579 122.123 159.579 107.341Z" fill="#00A1CC"/>
<path d="M159.579 134.404H212.886C212.886 149.072 200.926 161.012 186.233 161.012C171.539 161.012 159.579 149.072 159.579 134.404Z" fill="#00A1CC"/>
<path d="M213 160.671V213.886C198.306 213.886 186.347 201.947 186.347 187.278C186.347 172.61 198.306 160.671 213 160.671Z" fill="#00A1CC"/>
<path d="M186.119 160.671V213.886C171.425 213.886 159.465 201.947 159.465 187.278C159.465 172.61 171.425 160.671 186.119 160.671Z" fill="#00A1CC"/>
<path d="M159.579 214H106.272C106.272 199.332 118.232 187.392 132.926 187.392C147.619 187.392 159.579 199.332 159.579 214Z" fill="#00A1CC"/>
<path d="M159.579 187.051H106.272C106.272 172.383 118.232 160.443 132.926 160.443C147.619 160.443 159.579 172.269 159.579 187.051Z" fill="#00A1CC"/>
<path d="M0 53.3294V0.113708C14.6936 0.113708 26.6535 12.0531 26.6535 26.7216C26.6535 41.39 14.6936 53.3294 0 53.3294Z" fill="#00A1CC"/>
<path d="M26.5396 53.3294V0.113708C41.2331 0.113708 53.193 12.0531 53.193 26.7216C53.193 41.39 41.2331 53.3294 26.5396 53.3294Z" fill="#00A1CC"/>
<path d="M53.4209 0H106.728C106.728 14.6684 94.768 26.6079 80.0744 26.6079C65.3808 26.6079 53.4209 14.6684 53.4209 0Z" fill="#00A1CC"/>
<path d="M53.4209 26.949H106.728C106.728 41.6174 94.768 53.5568 80.0744 53.5568C65.3808 53.5568 53.4209 41.7311 53.4209 26.949Z" fill="#00A1CC"/>
<path d="M106.842 53.3295V106.545C92.1481 106.545 80.1882 94.6058 80.1882 79.9373C80.1882 65.2689 92.1481 53.3295 106.842 53.3295Z" fill="#00A1CC"/>
<path d="M79.9604 53.3295V106.545C65.2668 106.545 53.3069 94.6058 53.3069 79.9373C53.3069 65.2689 65.2668 53.3295 79.9604 53.3295Z" fill="#00A1CC"/>
<path d="M53.421 106.659H0.114014C0.114014 91.9905 12.0739 80.051 26.7675 80.051C41.4611 80.051 53.421 91.9905 53.421 106.659Z" fill="#00A1CC"/>
<path d="M53.421 79.7099H0.114014C0.114014 65.0414 12.0739 53.102 26.7675 53.102C41.4611 52.9883 53.421 64.9277 53.421 79.7099Z" fill="#00A1CC"/>
<path d="M106.158 53.3294V0.113708C120.852 0.113708 132.812 12.0531 132.812 26.7216C132.812 41.39 120.852 53.3294 106.158 53.3294Z" fill="#00A1CC"/>
<path d="M132.698 53.3294V0.113708C147.391 0.113708 159.351 12.0531 159.351 26.7216C159.351 41.39 147.391 53.3294 132.698 53.3294Z" fill="#00A1CC"/>
<path d="M159.579 0H212.886C212.886 14.6684 200.926 26.6079 186.233 26.6079C171.539 26.6079 159.579 14.6684 159.579 0Z" fill="#00A1CC"/>
<path d="M159.579 26.949H212.886C212.886 41.6174 200.926 53.5568 186.233 53.5568C171.539 53.6705 159.579 41.7311 159.579 26.949Z" fill="#00A1CC"/>
<path d="M213 53.3295V106.545C198.306 106.545 186.347 94.6058 186.347 79.9373C186.347 65.2689 198.306 53.3295 213 53.3295Z" fill="#00A1CC"/>
<path d="M186.119 53.3295V106.545C171.425 106.545 159.465 94.6058 159.465 79.9373C159.465 65.2689 171.425 53.3295 186.119 53.3295Z" fill="#00A1CC"/>
<path d="M159.579 106.659H106.272C106.272 91.9905 118.232 80.051 132.926 80.051C147.619 80.051 159.579 91.9905 159.579 106.659Z" fill="#00A1CC"/>
<path d="M159.579 79.7099H106.272C106.272 65.0414 118.232 53.102 132.926 53.102C147.619 52.9883 159.579 64.9277 159.579 79.7099Z" fill="#00A1CC"/>
</g>
<defs>
<clipPath id="clip0">
<rect width="213" height="214" fill="white"/>
</clipPath>
</defs>
</svg>
