<svg width="31" height="29" viewBox="0 0 31 29" fill="none" xmlns="http://www.w3.org/2000/svg">
<path fill-rule="evenodd" clip-rule="evenodd" d="M13.0965 6.14258H2.7612C1.69952 6.14258 0.838867 7.00323 0.838867 8.0649V27.0774C0.838867 28.1391 1.69952 28.9997 2.76119 28.9997H21.7737C22.8354 28.9997 23.696 28.1391 23.696 27.0774V17.0051H21.2931V26.5968H3.24178V8.54549H13.0965V6.14258Z" fill="black"/>
<path d="M30.3638 1.96338C30.3638 1.29984 29.8259 0.761928 29.1624 0.761927L18.3493 0.761928C17.6857 0.761927 17.1478 1.29984 17.1478 1.96338C17.1478 2.62693 17.6857 3.16484 18.3493 3.16484H27.9609V12.7765C27.9609 13.44 28.4988 13.9779 29.1623 13.9779C29.8259 13.9779 30.3638 13.44 30.3638 12.7765L30.3638 1.96338ZM13.9462 18.8786L30.0119 2.81294L28.3128 1.11383L12.2471 17.1795L13.9462 18.8786Z" fill="black"/>
</svg>
