<svg width="72" height="135" viewBox="0 0 72 135" fill="none" xmlns="http://www.w3.org/2000/svg">
<path d="M17.227 130.726C11.7497 127.876 7.5092 123.869 4.50552 118.704C1.50184 113.628 0 107.751 0 101.161V91.7216H23.8528V101.606C23.8528 105.346 25.0012 108.285 27.2098 110.511C29.4184 112.737 32.4221 113.895 36.0442 113.895C39.5779 113.895 42.5816 112.737 44.7902 110.422C47.0871 108.107 48.2356 105.168 48.2356 101.606V91.7216H72.0883L71.5583 101.161C71.5583 107.751 70.0564 113.628 67.0528 118.793C64.0491 123.958 59.8086 127.965 54.508 130.815C49.2074 133.664 43.0233 135.089 36.0442 135.089C28.9767 135 22.7043 133.575 17.227 130.726ZM17.227 74.624C11.7497 71.7744 7.5092 67.7672 4.50552 62.6022C1.50184 57.5264 0 51.6491 0 45.0594V35.6201H23.8528V45.5046C23.8528 49.2447 25.0012 52.1834 27.2098 54.4096C29.4184 56.6359 32.4221 57.7935 36.0442 57.7935C39.5779 57.7935 42.5816 56.6359 44.7902 54.3206C47.0871 52.0053 48.2356 49.0666 48.2356 45.5046V35.6201H72.0883L71.5583 45.0594C71.5583 51.6491 70.0564 57.5264 67.0528 62.6913C64.0491 67.8562 59.8086 71.8635 54.508 74.7131C49.2074 77.5627 43.0233 78.9875 36.0442 78.9875C28.9767 78.8984 22.7043 77.4736 17.227 74.624ZM10.8663 0H30.8319V18.3443H10.8663V0ZM41.2564 0H61.2221V18.3443H41.2564V0Z" fill="#0099D6"/>
</svg>
