<svg width="319" height="350" viewBox="0 0 319 350" fill="none" xmlns="http://www.w3.org/2000/svg">
<g clip-path="url(#clip0)">
<path fill-rule="evenodd" clip-rule="evenodd" d="M19.9 276.84C33.1733 299.68 51.9033 317.4 76.09 330C100.28 342.61 127.98 348.91 159.2 349.3C190.02 349.3 217.33 343 240.74 330.4C264.15 317.8 282.88 300.08 296.15 277.23C309.42 254.38 316.05 228.4 316.05 199.23L318.39 157.49H228V197.49C228 215.923 220.678 233.6 207.644 246.634C194.61 259.668 176.933 266.99 158.5 266.99C140.067 266.99 122.39 259.668 109.356 246.634C96.3223 233.6 89 215.923 89 197.49V157.49H0V199.23C0 228.4 6.63 254.39 19.9 276.84ZM136.17 0H48V81.12H136.18L136.17 0ZM270.4 0H182.22V81.12H270.4V0Z" fill="#00AFDB"/>
</g>
<defs>
<clipPath id="clip0">
<rect width="318.39" height="349.3" fill="white"/>
</clipPath>
</defs>
</svg>
